# xmcd
#
# Track frame offsets:
#	150
#	12262
#	30628
#	49476
#	69020
#	83582
#	100766
#	117153
#	130397
#	150046
#	164886
#	178669
#
# Disc length: 2557 seconds
#
# Revision: 1
# Processed by: cddbd v1.5.2PL0 Copyright (c) Steve Scherf et al.
# Submitted via: audiograbber 1.83.01
#
DISCID=8f09fb0c
DTITLE=STEVE EARLE - Washington Square Serenade
DYEAR=1900
DGENRE=
TTITLE0=TENNESSEE BLUES
TTITLE1=DOWN HERE BELOW
TTITLE2=SATELLITE RADIO
TTITLE3=CITY OF IMMIGRANTS 8w/ Forro In The Dark)
TTITLE4=SPARKLE AND SHINE
TTITLE5=COME HOME TO ME
TTITLE6=JERICHO ROAD
TTITLE7=OXYCONTIN BLUES
TTITLE8=RED IS THE COLOR
TTITLE9=STEVES HAMMER (For Pete)
TTITLE10=DAYS AREN'T LONG ENOUGH (w/ Allison Moorer)
TTITLE11=WAY DOWN IN THE HOLE
EXTD=
EXTT0=
EXTT1=
EXTT2=
EXTT3=
EXTT4=
EXTT5=
EXTT6=
EXTT7=
EXTT8=
EXTT9=
EXTT10=
EXTT11=
PLAYORDER=
